<mxfile><diagram id="R43phMIS7fBP-2INSA1O" name="Страница 1"><mxGraphModel dx="1511" dy="499" grid="1" gridSize="10" guides="1" tooltips="1" connect="1" arrows="1" fold="1" page="1" pageScale="1" pageWidth="827" pageHeight="1169" math="0" shadow="0"><root><mxCell id="0"/><mxCell id="1" parent="0"/><mxCell id="2" value="&lt;span data-sheets-userformat=&quot;{&amp;quot;2&amp;quot;:311296,&amp;quot;17&amp;quot;:0,&amp;quot;18&amp;quot;:0,&amp;quot;21&amp;quot;:0}&quot; data-sheets-value=&quot;{&amp;quot;1&amp;quot;:2,&amp;quot;2&amp;quot;:&amp;quot;Вы мужчина?&amp;quot;}&quot; style=&quot;font-size:10pt;font-family:Arial;font-style:normal;&quot;&gt;Вы мужчина?&lt;/span&gt;" style="ellipse;whiteSpace=wrap;html=1;aspect=fixed;" vertex="1" parent="1"><mxGeometry x="330" y="30" width="80" height="80" as="geometry"/></mxCell><mxCell id="3" value="Нет" style="ellipse;whiteSpace=wrap;html=1;aspect=fixed;" vertex="1" parent="1"><mxGeometry x="240" y="140" width="80" height="80" as="geometry"/></mxCell><mxCell id="4" value="Да" style="ellipse;whiteSpace=wrap;html=1;aspect=fixed;" vertex="1" parent="1"><mxGeometry x="440" y="140" width="80" height="80" as="geometry"/></mxCell><mxCell id="5" value="" style="endArrow=classic;html=1;exitX=0;exitY=1;exitDx=0;exitDy=0;entryX=1;entryY=0;entryDx=0;entryDy=0;" edge="1" parent="1" source="2" target="3"><mxGeometry width="50" height="50" relative="1" as="geometry"><mxPoint x="390" y="290" as="sourcePoint"/><mxPoint x="440" y="240" as="targetPoint"/></mxGeometry></mxCell><mxCell id="6" value="" style="endArrow=classic;html=1;exitX=1;exitY=1;exitDx=0;exitDy=0;" edge="1" parent="1" source="2" target="4"><mxGeometry width="50" height="50" relative="1" as="geometry"><mxPoint x="390" y="290" as="sourcePoint"/><mxPoint x="440" y="240" as="targetPoint"/></mxGeometry></mxCell><mxCell id="7" value="" style="endArrow=classic;html=1;exitX=0.5;exitY=1;exitDx=0;exitDy=0;" edge="1" parent="1" source="3"><mxGeometry width="50" height="50" relative="1" as="geometry"><mxPoint x="390" y="290" as="sourcePoint"/><mxPoint x="200" y="280" as="targetPoint"/></mxGeometry></mxCell><mxCell id="8" value="&lt;span data-sheets-userformat=&quot;{&amp;quot;2&amp;quot;:311296,&amp;quot;17&amp;quot;:0,&amp;quot;18&amp;quot;:0,&amp;quot;21&amp;quot;:0}&quot; data-sheets-value=&quot;{&amp;quot;1&amp;quot;:2,&amp;quot;2&amp;quot;:&amp;quot;Вам есть 18 лет?&amp;quot;}&quot; style=&quot;font-size:10pt;font-family:Arial;font-style:normal;&quot;&gt;Вам есть 18 лет?&lt;/span&gt;" style="ellipse;whiteSpace=wrap;html=1;aspect=fixed;" vertex="1" parent="1"><mxGeometry x="160" y="280" width="80" height="80" as="geometry"/></mxCell><mxCell id="9" value="" style="endArrow=classic;html=1;exitX=0;exitY=1;exitDx=0;exitDy=0;" edge="1" parent="1" source="8"><mxGeometry width="50" height="50" relative="1" as="geometry"><mxPoint x="390" y="290" as="sourcePoint"/><mxPoint x="110" y="420" as="targetPoint"/></mxGeometry></mxCell><mxCell id="10" value="Нет" style="ellipse;whiteSpace=wrap;html=1;aspect=fixed;" vertex="1" parent="1"><mxGeometry x="70" y="420" width="80" height="80" as="geometry"/></mxCell><mxCell id="11" value="" style="endArrow=classic;html=1;exitX=1;exitY=1;exitDx=0;exitDy=0;" edge="1" parent="1" source="8"><mxGeometry width="50" height="50" relative="1" as="geometry"><mxPoint x="390" y="290" as="sourcePoint"/><mxPoint x="270" y="430" as="targetPoint"/></mxGeometry></mxCell><mxCell id="12" value="Да" style="ellipse;whiteSpace=wrap;html=1;aspect=fixed;" vertex="1" parent="1"><mxGeometry x="230" y="430" width="80" height="80" as="geometry"/></mxCell><mxCell id="13" value="" style="endArrow=classic;html=1;exitX=0.5;exitY=1;exitDx=0;exitDy=0;" edge="1" parent="1" source="12"><mxGeometry width="50" height="50" relative="1" as="geometry"><mxPoint x="390" y="410" as="sourcePoint"/><mxPoint x="320" y="560" as="targetPoint"/></mxGeometry></mxCell><mxCell id="14" value="Ольга Клещенко" style="ellipse;whiteSpace=wrap;html=1;aspect=fixed;" vertex="1" parent="1"><mxGeometry x="280" y="560" width="80" height="80" as="geometry"/></mxCell><mxCell id="15" value="" style="endArrow=classic;html=1;exitX=0;exitY=1;exitDx=0;exitDy=0;" edge="1" parent="1" source="10"><mxGeometry width="50" height="50" relative="1" as="geometry"><mxPoint x="390" y="650" as="sourcePoint"/><mxPoint x="-30" y="620" as="targetPoint"/></mxGeometry></mxCell><mxCell id="16" value="&lt;span data-sheets-userformat=&quot;{&amp;quot;2&amp;quot;:311296,&amp;quot;17&amp;quot;:0,&amp;quot;18&amp;quot;:0,&amp;quot;21&amp;quot;:0}&quot; data-sheets-value=&quot;{&amp;quot;1&amp;quot;:2,&amp;quot;2&amp;quot;:&amp;quot;Ваш уровень английского - B2 или выше?&amp;quot;}&quot; style=&quot;font-size:10pt;font-family:Arial;font-style:normal;&quot;&gt;Ваш уровень английского - B2 или выше?&lt;/span&gt;" style="ellipse;whiteSpace=wrap;html=1;aspect=fixed;" vertex="1" parent="1"><mxGeometry x="-70" y="620" width="80" height="80" as="geometry"/></mxCell><mxCell id="17" value="" style="endArrow=classic;html=1;exitX=0;exitY=1;exitDx=0;exitDy=0;" edge="1" parent="1" source="16"><mxGeometry width="50" height="50" relative="1" as="geometry"><mxPoint x="360" y="600" as="sourcePoint"/><mxPoint x="-110" y="760" as="targetPoint"/></mxGeometry></mxCell><mxCell id="18" value="" style="endArrow=classic;html=1;exitX=1;exitY=1;exitDx=0;exitDy=0;" edge="1" parent="1" source="16"><mxGeometry width="50" height="50" relative="1" as="geometry"><mxPoint x="360" y="600" as="sourcePoint"/><mxPoint x="40" y="750" as="targetPoint"/></mxGeometry></mxCell><mxCell id="19" value="Да" style="ellipse;whiteSpace=wrap;html=1;aspect=fixed;" vertex="1" parent="1"><mxGeometry y="750" width="80" height="80" as="geometry"/></mxCell><mxCell id="20" value="Нет" style="ellipse;whiteSpace=wrap;html=1;aspect=fixed;" vertex="1" parent="1"><mxGeometry x="-160" y="760" width="80" height="80" as="geometry"/></mxCell><mxCell id="21" value="" style="endArrow=classic;html=1;exitX=0.5;exitY=1;exitDx=0;exitDy=0;" edge="1" parent="1" source="19"><mxGeometry width="50" height="50" relative="1" as="geometry"><mxPoint x="100" y="780" as="sourcePoint"/><mxPoint x="110" y="910" as="targetPoint"/></mxGeometry></mxCell><mxCell id="22" value="" style="endArrow=classic;html=1;exitX=0.5;exitY=1;exitDx=0;exitDy=0;" edge="1" parent="1" source="20"><mxGeometry width="50" height="50" relative="1" as="geometry"><mxPoint x="100" y="780" as="sourcePoint"/><mxPoint x="-190" y="910" as="targetPoint"/></mxGeometry></mxCell><mxCell id="23" value="&lt;span data-sheets-userformat=&quot;{&amp;quot;2&amp;quot;:311296,&amp;quot;17&amp;quot;:0,&amp;quot;18&amp;quot;:0,&amp;quot;21&amp;quot;:0}&quot; data-sheets-value=&quot;{&amp;quot;1&amp;quot;:2,&amp;quot;2&amp;quot;:&amp;quot;Вы окончили школу с медалью?&amp;quot;}&quot; style=&quot;font-size:10pt;font-family:Arial;font-style:normal;&quot;&gt;Вы окончили школу с медалью?&lt;/span&gt;" style="ellipse;whiteSpace=wrap;html=1;aspect=fixed;" vertex="1" parent="1"><mxGeometry x="70" y="910" width="80" height="80" as="geometry"/></mxCell><mxCell id="24" value="" style="endArrow=classic;html=1;exitX=0;exitY=1;exitDx=0;exitDy=0;" edge="1" parent="1" source="23"><mxGeometry width="50" height="50" relative="1" as="geometry"><mxPoint x="100" y="900" as="sourcePoint"/><mxPoint x="40" y="1070" as="targetPoint"/></mxGeometry></mxCell><mxCell id="25" value="" style="endArrow=classic;html=1;exitX=1;exitY=1;exitDx=0;exitDy=0;" edge="1" parent="1" source="23"><mxGeometry width="50" height="50" relative="1" as="geometry"><mxPoint x="100" y="900" as="sourcePoint"/><mxPoint x="210" y="1070" as="targetPoint"/></mxGeometry></mxCell><mxCell id="26" value="Да" style="ellipse;whiteSpace=wrap;html=1;aspect=fixed;" vertex="1" parent="1"><mxGeometry x="170" y="1070" width="80" height="80" as="geometry"/></mxCell><mxCell id="27" value="Нет" style="ellipse;whiteSpace=wrap;html=1;aspect=fixed;" vertex="1" parent="1"><mxGeometry y="1070" width="80" height="80" as="geometry"/></mxCell><mxCell id="28" value="" style="endArrow=classic;html=1;exitX=0;exitY=1;exitDx=0;exitDy=0;" edge="1" parent="1" source="27"><mxGeometry width="50" height="50" relative="1" as="geometry"><mxPoint x="100" y="1030" as="sourcePoint"/><mxPoint x="-40" y="1230" as="targetPoint"/></mxGeometry></mxCell><mxCell id="29" value="" style="endArrow=classic;html=1;exitX=1;exitY=1;exitDx=0;exitDy=0;" edge="1" parent="1" source="26"><mxGeometry width="50" height="50" relative="1" as="geometry"><mxPoint x="100" y="1160" as="sourcePoint"/><mxPoint x="310" y="1210" as="targetPoint"/></mxGeometry></mxCell><mxCell id="30" value="Александра Потапова" style="ellipse;whiteSpace=wrap;html=1;aspect=fixed;" vertex="1" parent="1"><mxGeometry x="-80" y="1230" width="80" height="80" as="geometry"/></mxCell><mxCell id="31" value="Ольга Шмайлова" style="ellipse;whiteSpace=wrap;html=1;aspect=fixed;" vertex="1" parent="1"><mxGeometry x="270" y="1210" width="80" height="80" as="geometry"/></mxCell><mxCell id="32" value="&lt;span data-sheets-userformat=&quot;{&amp;quot;2&amp;quot;:311296,&amp;quot;17&amp;quot;:0,&amp;quot;18&amp;quot;:0,&amp;quot;21&amp;quot;:0}&quot; data-sheets-value=&quot;{&amp;quot;1&amp;quot;:2,&amp;quot;2&amp;quot;:&amp;quot;Вы умеете готовить?&amp;quot;}&quot; style=&quot;font-size:10pt;font-family:Arial;font-style:normal;&quot;&gt;Вы умеете готовить?&lt;/span&gt;" style="ellipse;whiteSpace=wrap;html=1;aspect=fixed;" vertex="1" parent="1"><mxGeometry x="-230" y="910" width="80" height="80" as="geometry"/></mxCell><mxCell id="33" value="" style="endArrow=classic;html=1;exitX=1;exitY=1;exitDx=0;exitDy=0;" edge="1" parent="1" source="32"><mxGeometry width="50" height="50" relative="1" as="geometry"><mxPoint x="100" y="1020" as="sourcePoint"/><mxPoint x="-120" y="1030" as="targetPoint"/></mxGeometry></mxCell><mxCell id="34" value="Да" style="ellipse;whiteSpace=wrap;html=1;aspect=fixed;" vertex="1" parent="1"><mxGeometry x="-160" y="1030" width="80" height="80" as="geometry"/></mxCell><mxCell id="35" value="Килебе нтангу дьевина" style="ellipse;whiteSpace=wrap;html=1;aspect=fixed;" vertex="1" parent="1"><mxGeometry x="-190" y="1230" width="80" height="80" as="geometry"/></mxCell><mxCell id="36" value="" style="endArrow=classic;html=1;exitX=0.5;exitY=1;exitDx=0;exitDy=0;entryX=0.5;entryY=0;entryDx=0;entryDy=0;" edge="1" parent="1" source="34" target="35"><mxGeometry width="50" height="50" relative="1" as="geometry"><mxPoint x="100" y="1270" as="sourcePoint"/><mxPoint x="150" y="1220" as="targetPoint"/></mxGeometry></mxCell><mxCell id="37" value="" style="endArrow=classic;html=1;exitX=0;exitY=1;exitDx=0;exitDy=0;" edge="1" parent="1" source="32"><mxGeometry width="50" height="50" relative="1" as="geometry"><mxPoint x="100" y="1140" as="sourcePoint"/><mxPoint x="-320" y="1080" as="targetPoint"/></mxGeometry></mxCell><mxCell id="38" value="Нет" style="ellipse;whiteSpace=wrap;html=1;aspect=fixed;" vertex="1" parent="1"><mxGeometry x="-360" y="1080" width="80" height="80" as="geometry"/></mxCell><mxCell id="39" value="" style="endArrow=classic;html=1;exitX=0.5;exitY=1;exitDx=0;exitDy=0;" edge="1" parent="1" source="38"><mxGeometry width="50" height="50" relative="1" as="geometry"><mxPoint x="-230" y="1120" as="sourcePoint"/><mxPoint x="-390" y="1250" as="targetPoint"/></mxGeometry></mxCell><mxCell id="40" value="&lt;span data-sheets-userformat=&quot;{&amp;quot;2&amp;quot;:311296,&amp;quot;17&amp;quot;:0,&amp;quot;18&amp;quot;:0,&amp;quot;21&amp;quot;:0}&quot; data-sheets-value=&quot;{&amp;quot;1&amp;quot;:2,&amp;quot;2&amp;quot;:&amp;quot;У вас карие глаза?&amp;quot;}&quot; style=&quot;font-size:10pt;font-family:Arial;font-style:normal;&quot;&gt;У вас карие глаза?&lt;/span&gt;" style="ellipse;whiteSpace=wrap;html=1;aspect=fixed;" vertex="1" parent="1"><mxGeometry x="-430" y="1250" width="80" height="80" as="geometry"/></mxCell><mxCell id="41" value="" style="endArrow=classic;html=1;exitX=0;exitY=1;exitDx=0;exitDy=0;" edge="1" parent="1" source="40"><mxGeometry width="50" height="50" relative="1" as="geometry"><mxPoint x="-230" y="1360" as="sourcePoint"/><mxPoint x="-480" y="1400" as="targetPoint"/></mxGeometry></mxCell><mxCell id="42" value="" style="endArrow=classic;html=1;exitX=1;exitY=1;exitDx=0;exitDy=0;" edge="1" parent="1" source="40"><mxGeometry width="50" height="50" relative="1" as="geometry"><mxPoint x="-230" y="1360" as="sourcePoint"/><mxPoint x="-320" y="1400" as="targetPoint"/></mxGeometry></mxCell><mxCell id="43" value="Да" style="ellipse;whiteSpace=wrap;html=1;aspect=fixed;" vertex="1" parent="1"><mxGeometry x="-360" y="1400" width="80" height="80" as="geometry"/></mxCell><mxCell id="44" value="Нет" style="ellipse;whiteSpace=wrap;html=1;aspect=fixed;" vertex="1" parent="1"><mxGeometry x="-520" y="1400" width="80" height="80" as="geometry"/></mxCell><mxCell id="45" value="" style="endArrow=classic;html=1;exitX=1;exitY=1;exitDx=0;exitDy=0;" edge="1" parent="1" source="43"><mxGeometry width="50" height="50" relative="1" as="geometry"><mxPoint x="-230" y="1420" as="sourcePoint"/><mxPoint x="-240" y="1520" as="targetPoint"/></mxGeometry></mxCell><mxCell id="47" value="&lt;span data-sheets-userformat=&quot;{&amp;quot;2&amp;quot;:513,&amp;quot;3&amp;quot;:{&amp;quot;1&amp;quot;:0},&amp;quot;12&amp;quot;:0}&quot; data-sheets-value=&quot;{&amp;quot;1&amp;quot;:2,&amp;quot;2&amp;quot;:&amp;quot;Елизавета Лактионова &amp;quot;}&quot; style=&quot;font-size:10pt;font-family:Arial;font-style:normal;&quot;&gt;Елизавета Лактионова &lt;/span&gt;" style="ellipse;whiteSpace=wrap;html=1;aspect=fixed;" vertex="1" parent="1"><mxGeometry x="-280" y="1520" width="80" height="80" as="geometry"/></mxCell><mxCell id="48" value="" style="endArrow=classic;html=1;exitX=0;exitY=1;exitDx=0;exitDy=0;" edge="1" parent="1" source="44"><mxGeometry width="50" height="50" relative="1" as="geometry"><mxPoint x="-230" y="1420" as="sourcePoint"/><mxPoint x="-560" y="1530" as="targetPoint"/></mxGeometry></mxCell><mxCell id="49" value="&lt;span data-sheets-userformat=&quot;{&amp;quot;2&amp;quot;:513,&amp;quot;3&amp;quot;:{&amp;quot;1&amp;quot;:0},&amp;quot;12&amp;quot;:0}&quot; data-sheets-value=&quot;{&amp;quot;1&amp;quot;:2,&amp;quot;2&amp;quot;:&amp;quot;Юля Лапшина&amp;quot;}&quot; style=&quot;font-size:10pt;font-family:Arial;font-style:normal;&quot;&gt;Юля Лапшина&lt;/span&gt;" style="ellipse;whiteSpace=wrap;html=1;aspect=fixed;" vertex="1" parent="1"><mxGeometry x="-600" y="1530" width="80" height="80" as="geometry"/></mxCell><mxCell id="50" value="" style="endArrow=classic;html=1;exitX=1;exitY=1;exitDx=0;exitDy=0;" edge="1" parent="1" source="4"><mxGeometry width="50" height="50" relative="1" as="geometry"><mxPoint x="470" y="290" as="sourcePoint"/><mxPoint x="600" y="280" as="targetPoint"/></mxGeometry></mxCell><mxCell id="51" value="&lt;span data-sheets-userformat=&quot;{&amp;quot;2&amp;quot;:311296,&amp;quot;17&amp;quot;:0,&amp;quot;18&amp;quot;:0,&amp;quot;21&amp;quot;:0}&quot; data-sheets-value=&quot;{&amp;quot;1&amp;quot;:2,&amp;quot;2&amp;quot;:&amp;quot;Вам есть 18 лет?&amp;quot;}&quot; style=&quot;font-size:10pt;font-family:Arial;font-style:normal;&quot;&gt;Вам есть 18 лет?&lt;/span&gt;" style="ellipse;whiteSpace=wrap;html=1;aspect=fixed;" vertex="1" parent="1"><mxGeometry x="560" y="280" width="80" height="80" as="geometry"/></mxCell><mxCell id="52" value="" style="endArrow=classic;html=1;exitX=0;exitY=1;exitDx=0;exitDy=0;" edge="1" parent="1" source="51"><mxGeometry width="50" height="50" relative="1" as="geometry"><mxPoint x="540" y="340" as="sourcePoint"/><mxPoint x="570" y="440" as="targetPoint"/></mxGeometry></mxCell><mxCell id="53" value="" style="endArrow=classic;html=1;exitX=1;exitY=1;exitDx=0;exitDy=0;" edge="1" parent="1" source="51"><mxGeometry width="50" height="50" relative="1" as="geometry"><mxPoint x="540" y="340" as="sourcePoint"/><mxPoint x="760" y="400" as="targetPoint"/></mxGeometry></mxCell><mxCell id="54" value="Нет" style="ellipse;whiteSpace=wrap;html=1;aspect=fixed;" vertex="1" parent="1"><mxGeometry x="530" y="440" width="80" height="80" as="geometry"/></mxCell><mxCell id="55" value="Да" style="ellipse;whiteSpace=wrap;html=1;aspect=fixed;" vertex="1" parent="1"><mxGeometry x="730" y="400" width="80" height="80" as="geometry"/></mxCell><mxCell id="56" value="" style="endArrow=classic;html=1;exitX=0.5;exitY=1;exitDx=0;exitDy=0;" edge="1" parent="1" source="54"><mxGeometry width="50" height="50" relative="1" as="geometry"><mxPoint x="650" y="550" as="sourcePoint"/><mxPoint x="520" y="600" as="targetPoint"/></mxGeometry></mxCell><mxCell id="57" value="&lt;span data-sheets-userformat=&quot;{&amp;quot;2&amp;quot;:311296,&amp;quot;17&amp;quot;:0,&amp;quot;18&amp;quot;:0,&amp;quot;21&amp;quot;:0}&quot; data-sheets-value=&quot;{&amp;quot;1&amp;quot;:2,&amp;quot;2&amp;quot;:&amp;quot;Вы местный? (Из Санкт-Петербурга)&amp;quot;}&quot; style=&quot;font-size:10pt;font-family:Arial;font-style:normal;&quot;&gt;Вы местный? (Из Санкт-Петербурга)&lt;/span&gt;" style="ellipse;whiteSpace=wrap;html=1;aspect=fixed;" vertex="1" parent="1"><mxGeometry x="480" y="600" width="80" height="80" as="geometry"/></mxCell><mxCell id="58" value="" style="endArrow=classic;html=1;exitX=0.063;exitY=0.853;exitDx=0;exitDy=0;exitPerimeter=0;" edge="1" parent="1" source="57"><mxGeometry width="50" height="50" relative="1" as="geometry"><mxPoint x="650" y="550" as="sourcePoint"/><mxPoint x="400" y="720" as="targetPoint"/></mxGeometry></mxCell><mxCell id="59" value="Нет" style="ellipse;whiteSpace=wrap;html=1;aspect=fixed;" vertex="1" parent="1"><mxGeometry x="360" y="720" width="80" height="80" as="geometry"/></mxCell><mxCell id="60" value="" style="endArrow=classic;html=1;exitX=0;exitY=1;exitDx=0;exitDy=0;" edge="1" parent="1" source="59"><mxGeometry width="50" height="50" relative="1" as="geometry"><mxPoint x="650" y="810" as="sourcePoint"/><mxPoint x="290" y="870" as="targetPoint"/></mxGeometry></mxCell><mxCell id="61" value="&lt;span data-sheets-userformat=&quot;{&amp;quot;2&amp;quot;:513,&amp;quot;3&amp;quot;:{&amp;quot;1&amp;quot;:0},&amp;quot;12&amp;quot;:0}&quot; data-sheets-value=&quot;{&amp;quot;1&amp;quot;:2,&amp;quot;2&amp;quot;:&amp;quot;Александр Лазуренко &amp;quot;}&quot; style=&quot;font-size:10pt;font-family:Arial;font-style:normal;&quot;&gt;Александр Лазуренко &lt;/span&gt;" style="ellipse;whiteSpace=wrap;html=1;aspect=fixed;" vertex="1" parent="1"><mxGeometry x="250" y="870" width="80" height="80" as="geometry"/></mxCell><mxCell id="62" value="" style="endArrow=classic;html=1;exitX=1;exitY=1;exitDx=0;exitDy=0;" edge="1" parent="1" source="57"><mxGeometry width="50" height="50" relative="1" as="geometry"><mxPoint x="650" y="810" as="sourcePoint"/><mxPoint x="650" y="760" as="targetPoint"/></mxGeometry></mxCell><mxCell id="63" value="Да" style="ellipse;whiteSpace=wrap;html=1;aspect=fixed;" vertex="1" parent="1"><mxGeometry x="610" y="760" width="80" height="80" as="geometry"/></mxCell><mxCell id="64" value="" style="endArrow=classic;html=1;exitX=0.5;exitY=1;exitDx=0;exitDy=0;" edge="1" parent="1" source="63"><mxGeometry width="50" height="50" relative="1" as="geometry"><mxPoint x="820" y="780" as="sourcePoint"/><mxPoint x="680" y="920" as="targetPoint"/></mxGeometry></mxCell><mxCell id="65" value="&lt;span data-sheets-userformat=&quot;{&amp;quot;2&amp;quot;:311296,&amp;quot;17&amp;quot;:0,&amp;quot;18&amp;quot;:0,&amp;quot;21&amp;quot;:0}&quot; data-sheets-value=&quot;{&amp;quot;1&amp;quot;:2,&amp;quot;2&amp;quot;:&amp;quot;Вы окончили школу с медалью?&amp;quot;}&quot; style=&quot;font-size:10pt;font-family:Arial;font-style:normal;&quot;&gt;Вы окончили школу с медалью?&lt;/span&gt;" style="ellipse;whiteSpace=wrap;html=1;aspect=fixed;" vertex="1" parent="1"><mxGeometry x="640" y="920" width="80" height="80" as="geometry"/></mxCell><mxCell id="66" value="" style="endArrow=classic;html=1;exitX=0;exitY=1;exitDx=0;exitDy=0;" edge="1" parent="1" source="65"><mxGeometry width="50" height="50" relative="1" as="geometry"><mxPoint x="800" y="970" as="sourcePoint"/><mxPoint x="600" y="1040" as="targetPoint"/></mxGeometry></mxCell><mxCell id="67" value="" style="endArrow=classic;html=1;exitX=1;exitY=1;exitDx=0;exitDy=0;" edge="1" parent="1" source="65"><mxGeometry width="50" height="50" relative="1" as="geometry"><mxPoint x="800" y="970" as="sourcePoint"/><mxPoint x="760" y="1030" as="targetPoint"/></mxGeometry></mxCell><mxCell id="68" value="Да" style="ellipse;whiteSpace=wrap;html=1;aspect=fixed;" vertex="1" parent="1"><mxGeometry x="720" y="1030" width="80" height="80" as="geometry"/></mxCell><mxCell id="69" value="Нет" style="ellipse;whiteSpace=wrap;html=1;aspect=fixed;" vertex="1" parent="1"><mxGeometry x="560" y="1040" width="80" height="80" as="geometry"/></mxCell><mxCell id="70" value="" style="endArrow=classic;html=1;exitX=0;exitY=1;exitDx=0;exitDy=0;" edge="1" parent="1" source="69"><mxGeometry width="50" height="50" relative="1" as="geometry"><mxPoint x="800" y="1090" as="sourcePoint"/><mxPoint x="520" y="1180" as="targetPoint"/></mxGeometry></mxCell><mxCell id="71" value="" style="endArrow=classic;html=1;exitX=1;exitY=1;exitDx=0;exitDy=0;" edge="1" parent="1" source="68"><mxGeometry width="50" height="50" relative="1" as="geometry"><mxPoint x="800" y="1210" as="sourcePoint"/><mxPoint x="830" y="1170" as="targetPoint"/></mxGeometry></mxCell><mxCell id="72" value="&lt;span data-sheets-userformat=&quot;{&amp;quot;2&amp;quot;:513,&amp;quot;3&amp;quot;:{&amp;quot;1&amp;quot;:0},&amp;quot;12&amp;quot;:0}&quot; data-sheets-value=&quot;{&amp;quot;1&amp;quot;:2,&amp;quot;2&amp;quot;:&amp;quot;Роман Корчагин&amp;quot;}&quot; style=&quot;font-size:10pt;font-family:Arial;font-style:normal;&quot;&gt;Роман Корчагин&lt;/span&gt;" style="ellipse;whiteSpace=wrap;html=1;aspect=fixed;" vertex="1" parent="1"><mxGeometry x="790" y="1169" width="80" height="80" as="geometry"/></mxCell><mxCell id="74" value="" style="endArrow=classic;html=1;exitX=1;exitY=1;exitDx=0;exitDy=0;" edge="1" parent="1" source="55"><mxGeometry width="50" height="50" relative="1" as="geometry"><mxPoint x="1010" y="490" as="sourcePoint"/><mxPoint x="970" y="560" as="targetPoint"/></mxGeometry></mxCell><mxCell id="75" value="&lt;span data-sheets-userformat=&quot;{&amp;quot;2&amp;quot;:311296,&amp;quot;17&amp;quot;:0,&amp;quot;18&amp;quot;:0,&amp;quot;21&amp;quot;:0}&quot; data-sheets-value=&quot;{&amp;quot;1&amp;quot;:2,&amp;quot;2&amp;quot;:&amp;quot;Вы местный? (Из Санкт-Петербурга)&amp;quot;}&quot; style=&quot;font-size:10pt;font-family:Arial;font-style:normal;&quot;&gt;Вы местный? (Из Санкт-Петербурга)&lt;/span&gt;" style="ellipse;whiteSpace=wrap;html=1;aspect=fixed;" vertex="1" parent="1"><mxGeometry x="930" y="560" width="80" height="80" as="geometry"/></mxCell><mxCell id="76" value="" style="endArrow=classic;html=1;exitX=0;exitY=1;exitDx=0;exitDy=0;" edge="1" parent="1" source="75"><mxGeometry width="50" height="50" relative="1" as="geometry"><mxPoint x="1030" y="690" as="sourcePoint"/><mxPoint x="880" y="680" as="targetPoint"/></mxGeometry></mxCell><mxCell id="77" value="" style="endArrow=classic;html=1;exitX=1;exitY=1;exitDx=0;exitDy=0;" edge="1" parent="1" source="75"><mxGeometry width="50" height="50" relative="1" as="geometry"><mxPoint x="1030" y="690" as="sourcePoint"/><mxPoint x="1070" y="680" as="targetPoint"/></mxGeometry></mxCell><mxCell id="78" value="Нет" style="ellipse;whiteSpace=wrap;html=1;aspect=fixed;" vertex="1" parent="1"><mxGeometry x="840" y="680" width="80" height="80" as="geometry"/></mxCell><mxCell id="79" value="Да" style="ellipse;whiteSpace=wrap;html=1;aspect=fixed;" vertex="1" parent="1"><mxGeometry x="1030" y="680" width="80" height="80" as="geometry"/></mxCell><mxCell id="80" value="" style="endArrow=classic;html=1;exitX=0.5;exitY=1;exitDx=0;exitDy=0;" edge="1" parent="1" source="78"><mxGeometry width="50" height="50" relative="1" as="geometry"><mxPoint x="1030" y="810" as="sourcePoint"/><mxPoint x="880" y="840" as="targetPoint"/></mxGeometry></mxCell><mxCell id="81" value="&lt;span data-sheets-userformat=&quot;{&amp;quot;2&amp;quot;:311296,&amp;quot;17&amp;quot;:0,&amp;quot;18&amp;quot;:0,&amp;quot;21&amp;quot;:0}&quot; data-sheets-value=&quot;{&amp;quot;1&amp;quot;:2,&amp;quot;2&amp;quot;:&amp;quot;Вы окончили школу с медалью?&amp;quot;}&quot; style=&quot;font-size:10pt;font-family:Arial;font-style:normal;&quot;&gt;Вы окончили школу с медалью?&lt;/span&gt;" style="ellipse;whiteSpace=wrap;html=1;aspect=fixed;" vertex="1" parent="1"><mxGeometry x="840" y="840" width="80" height="80" as="geometry"/></mxCell><mxCell id="82" value="Нет" style="ellipse;whiteSpace=wrap;html=1;aspect=fixed;" vertex="1" parent="1"><mxGeometry x="770" y="940" width="80" height="80" as="geometry"/></mxCell><mxCell id="83" value="Да" style="ellipse;whiteSpace=wrap;html=1;aspect=fixed;" vertex="1" parent="1"><mxGeometry x="970" y="940" width="80" height="80" as="geometry"/></mxCell><mxCell id="84" value="" style="endArrow=classic;html=1;exitX=1;exitY=1;exitDx=0;exitDy=0;entryX=0.5;entryY=0;entryDx=0;entryDy=0;" edge="1" parent="1" source="81" target="83"><mxGeometry width="50" height="50" relative="1" as="geometry"><mxPoint x="1030" y="920" as="sourcePoint"/><mxPoint x="1080" y="870" as="targetPoint"/></mxGeometry></mxCell><mxCell id="85" value="" style="endArrow=classic;html=1;exitX=0.5;exitY=1;exitDx=0;exitDy=0;" edge="1" parent="1" source="83"><mxGeometry width="50" height="50" relative="1" as="geometry"><mxPoint x="1030" y="1040" as="sourcePoint"/><mxPoint x="1010" y="1070" as="targetPoint"/></mxGeometry></mxCell><mxCell id="86" value="&lt;span data-sheets-userformat=&quot;{&amp;quot;2&amp;quot;:513,&amp;quot;3&amp;quot;:{&amp;quot;1&amp;quot;:0},&amp;quot;12&amp;quot;:0}&quot; data-sheets-value=&quot;{&amp;quot;1&amp;quot;:2,&amp;quot;2&amp;quot;:&amp;quot;Максим Фалькович&amp;quot;}&quot; style=&quot;font-size:10pt;font-family:Arial;font-style:normal;&quot;&gt;Максим Фалькович&lt;/span&gt;" style="ellipse;whiteSpace=wrap;html=1;aspect=fixed;" vertex="1" parent="1"><mxGeometry x="970" y="1070" width="80" height="80" as="geometry"/></mxCell><mxCell id="87" value="" style="endArrow=classic;html=1;exitX=0;exitY=1;exitDx=0;exitDy=0;entryX=1;entryY=0;entryDx=0;entryDy=0;" edge="1" parent="1" source="81" target="82"><mxGeometry width="50" height="50" relative="1" as="geometry"><mxPoint x="1030" y="1040" as="sourcePoint"/><mxPoint x="1080" y="990" as="targetPoint"/></mxGeometry></mxCell><mxCell id="88" value="" style="endArrow=classic;html=1;exitX=0.5;exitY=1;exitDx=0;exitDy=0;" edge="1" parent="1" source="82"><mxGeometry width="50" height="50" relative="1" as="geometry"><mxPoint x="1030" y="1040" as="sourcePoint"/><mxPoint x="870" y="1070" as="targetPoint"/></mxGeometry></mxCell><mxCell id="89" value="&lt;span data-sheets-userformat=&quot;{&amp;quot;2&amp;quot;:513,&amp;quot;3&amp;quot;:{&amp;quot;1&amp;quot;:0},&amp;quot;12&amp;quot;:0}&quot; data-sheets-value=&quot;{&amp;quot;1&amp;quot;:2,&amp;quot;2&amp;quot;:&amp;quot;Айхам Маатук &amp;quot;}&quot; style=&quot;font-size:10pt;font-family:Arial;font-style:normal;&quot;&gt;Айхам Маатук &lt;/span&gt;" style="ellipse;whiteSpace=wrap;html=1;aspect=fixed;" vertex="1" parent="1"><mxGeometry x="827" y="1070" width="80" height="80" as="geometry"/></mxCell><mxCell id="90" value="" style="endArrow=classic;html=1;exitX=1;exitY=1;exitDx=0;exitDy=0;" edge="1" parent="1" source="79"><mxGeometry width="50" height="50" relative="1" as="geometry"><mxPoint x="980" y="840" as="sourcePoint"/><mxPoint x="1320" y="800" as="targetPoint"/></mxGeometry></mxCell><mxCell id="91" value="&lt;span data-sheets-userformat=&quot;{&amp;quot;2&amp;quot;:311296,&amp;quot;17&amp;quot;:0,&amp;quot;18&amp;quot;:0,&amp;quot;21&amp;quot;:0}&quot; data-sheets-value=&quot;{&amp;quot;1&amp;quot;:2,&amp;quot;2&amp;quot;:&amp;quot;Вы окончили школу с медалью?&amp;quot;}&quot; style=&quot;font-size:10pt;font-family:Arial;font-style:normal;&quot;&gt;Вы окончили школу с медалью?&lt;/span&gt;" style="ellipse;whiteSpace=wrap;html=1;aspect=fixed;" vertex="1" parent="1"><mxGeometry x="1280" y="800" width="80" height="80" as="geometry"/></mxCell><mxCell id="92" value="" style="endArrow=classic;html=1;exitX=1;exitY=1;exitDx=0;exitDy=0;" edge="1" parent="1" source="91"><mxGeometry width="50" height="50" relative="1" as="geometry"><mxPoint x="1090" y="960" as="sourcePoint"/><mxPoint x="1520" y="920" as="targetPoint"/></mxGeometry></mxCell><mxCell id="93" value="Да" style="ellipse;whiteSpace=wrap;html=1;aspect=fixed;" vertex="1" parent="1"><mxGeometry x="1480" y="920" width="80" height="80" as="geometry"/></mxCell><mxCell id="94" value="" style="endArrow=classic;html=1;exitX=0;exitY=1;exitDx=0;exitDy=0;" edge="1" parent="1" source="91"><mxGeometry width="50" height="50" relative="1" as="geometry"><mxPoint x="1420" y="960" as="sourcePoint"/><mxPoint x="1280" y="960" as="targetPoint"/></mxGeometry></mxCell><mxCell id="95" value="Нет" style="ellipse;whiteSpace=wrap;html=1;aspect=fixed;" vertex="1" parent="1"><mxGeometry x="1241" y="960" width="80" height="80" as="geometry"/></mxCell><mxCell id="96" value="&lt;span data-sheets-userformat=&quot;{&amp;quot;2&amp;quot;:311296,&amp;quot;17&amp;quot;:0,&amp;quot;18&amp;quot;:0,&amp;quot;21&amp;quot;:0}&quot; data-sheets-value=&quot;{&amp;quot;1&amp;quot;:2,&amp;quot;2&amp;quot;:&amp;quot;Вы умеете готовить?&amp;quot;}&quot; style=&quot;font-size:10pt;font-family:Arial;font-style:normal;&quot;&gt;Вы умеете готовить?&lt;/span&gt;" style="ellipse;whiteSpace=wrap;html=1;aspect=fixed;" vertex="1" parent="1"><mxGeometry x="480" y="1180" width="80" height="80" as="geometry"/></mxCell><mxCell id="97" value="" style="endArrow=classic;html=1;exitX=0;exitY=1;exitDx=0;exitDy=0;" edge="1" parent="1" source="96"><mxGeometry width="50" height="50" relative="1" as="geometry"><mxPoint x="490" y="1240" as="sourcePoint"/><mxPoint x="450" y="1310" as="targetPoint"/></mxGeometry></mxCell><mxCell id="98" value="" style="endArrow=classic;html=1;exitX=1;exitY=1;exitDx=0;exitDy=0;" edge="1" parent="1" source="96"><mxGeometry width="50" height="50" relative="1" as="geometry"><mxPoint x="490" y="1240" as="sourcePoint"/><mxPoint x="590" y="1310" as="targetPoint"/></mxGeometry></mxCell><mxCell id="99" value="Нет" style="ellipse;whiteSpace=wrap;html=1;aspect=fixed;" vertex="1" parent="1"><mxGeometry x="410" y="1310" width="80" height="80" as="geometry"/></mxCell><mxCell id="100" value="Да" style="ellipse;whiteSpace=wrap;html=1;aspect=fixed;" vertex="1" parent="1"><mxGeometry x="550" y="1310" width="80" height="80" as="geometry"/></mxCell><mxCell id="101" value="" style="endArrow=classic;html=1;exitX=0.5;exitY=1;exitDx=0;exitDy=0;" edge="1" parent="1" source="99"><mxGeometry width="50" height="50" relative="1" as="geometry"><mxPoint x="580" y="1340" as="sourcePoint"/><mxPoint x="410" y="1440" as="targetPoint"/></mxGeometry></mxCell><mxCell id="102" value="" style="endArrow=classic;html=1;exitX=0.5;exitY=1;exitDx=0;exitDy=0;" edge="1" parent="1" source="100"><mxGeometry width="50" height="50" relative="1" as="geometry"><mxPoint x="580" y="1340" as="sourcePoint"/><mxPoint x="640" y="1430" as="targetPoint"/></mxGeometry></mxCell><mxCell id="103" value="&lt;span data-sheets-userformat=&quot;{&amp;quot;2&amp;quot;:513,&amp;quot;3&amp;quot;:{&amp;quot;1&amp;quot;:0},&amp;quot;12&amp;quot;:0}&quot; data-sheets-value=&quot;{&amp;quot;1&amp;quot;:2,&amp;quot;2&amp;quot;:&amp;quot;Буцкий Даниил&amp;quot;}&quot; style=&quot;font-size:10pt;font-family:Arial;font-style:normal;&quot;&gt;Буцкий Даниил&lt;/span&gt;" style="ellipse;whiteSpace=wrap;html=1;aspect=fixed;" vertex="1" parent="1"><mxGeometry x="370" y="1440" width="80" height="80" as="geometry"/></mxCell><mxCell id="104" value="&lt;span data-sheets-userformat=&quot;{&amp;quot;2&amp;quot;:513,&amp;quot;3&amp;quot;:{&amp;quot;1&amp;quot;:0},&amp;quot;12&amp;quot;:0}&quot; data-sheets-value=&quot;{&amp;quot;1&amp;quot;:2,&amp;quot;2&amp;quot;:&amp;quot;Сергей Неустроев &amp;quot;}&quot; style=&quot;font-size:10pt;font-family:Arial;font-style:normal;&quot;&gt;Сергей Неустроев &lt;/span&gt;" style="ellipse;whiteSpace=wrap;html=1;aspect=fixed;" vertex="1" parent="1"><mxGeometry x="600" y="1430" width="80" height="80" as="geometry"/></mxCell><mxCell id="105" value="" style="endArrow=classic;html=1;exitX=0.5;exitY=1;exitDx=0;exitDy=0;" edge="1" parent="1" source="95"><mxGeometry width="50" height="50" relative="1" as="geometry"><mxPoint x="1280" y="990" as="sourcePoint"/><mxPoint x="1270" y="1120" as="targetPoint"/></mxGeometry></mxCell><mxCell id="106" value="Букинов Даниил" style="ellipse;whiteSpace=wrap;html=1;aspect=fixed;" vertex="1" parent="1"><mxGeometry x="1230" y="1120" width="80" height="80" as="geometry"/></mxCell><mxCell id="107" value="" style="endArrow=classic;html=1;exitX=0.5;exitY=1;exitDx=0;exitDy=0;" edge="1" parent="1" source="93"><mxGeometry width="50" height="50" relative="1" as="geometry"><mxPoint x="1220" y="960" as="sourcePoint"/><mxPoint x="1560" y="1070" as="targetPoint"/></mxGeometry></mxCell><mxCell id="108" value="&lt;span data-sheets-userformat=&quot;{&amp;quot;2&amp;quot;:311296,&amp;quot;17&amp;quot;:0,&amp;quot;18&amp;quot;:0,&amp;quot;21&amp;quot;:0}&quot; data-sheets-value=&quot;{&amp;quot;1&amp;quot;:2,&amp;quot;2&amp;quot;:&amp;quot;Ваш уровень английского - B2 или выше?&amp;quot;}&quot; style=&quot;font-size:10pt;font-family:Arial;font-style:normal;&quot;&gt;Ваш уровень английского - B2 или выше?&lt;/span&gt;" style="ellipse;whiteSpace=wrap;html=1;aspect=fixed;" vertex="1" parent="1"><mxGeometry x="1520" y="1070" width="80" height="80" as="geometry"/></mxCell><mxCell id="109" value="" style="endArrow=classic;html=1;exitX=0.177;exitY=0.929;exitDx=0;exitDy=0;exitPerimeter=0;" edge="1" parent="1" source="108"><mxGeometry width="50" height="50" relative="1" as="geometry"><mxPoint x="1430" y="1230" as="sourcePoint"/><mxPoint x="1480" y="1240" as="targetPoint"/></mxGeometry></mxCell><mxCell id="111" value="Нет" style="ellipse;whiteSpace=wrap;html=1;aspect=fixed;" vertex="1" parent="1"><mxGeometry x="1440" y="1240" width="80" height="80" as="geometry"/></mxCell><mxCell id="112" value="" style="endArrow=classic;html=1;exitX=1;exitY=1;exitDx=0;exitDy=0;" edge="1" parent="1" source="108"><mxGeometry width="50" height="50" relative="1" as="geometry"><mxPoint x="1550" y="1230" as="sourcePoint"/><mxPoint x="1640" y="1240" as="targetPoint"/></mxGeometry></mxCell><mxCell id="113" value="Да" style="ellipse;whiteSpace=wrap;html=1;aspect=fixed;" vertex="1" parent="1"><mxGeometry x="1600" y="1240" width="80" height="80" as="geometry"/></mxCell><mxCell id="114" value="" style="endArrow=classic;html=1;exitX=0.5;exitY=1;exitDx=0;exitDy=0;" edge="1" parent="1" source="113"><mxGeometry width="50" height="50" relative="1" as="geometry"><mxPoint x="1550" y="1230" as="sourcePoint"/><mxPoint x="1680" y="1400" as="targetPoint"/></mxGeometry></mxCell><mxCell id="115" value="Иван Стафеев" style="ellipse;whiteSpace=wrap;html=1;aspect=fixed;" vertex="1" parent="1"><mxGeometry x="1640" y="1400" width="80" height="80" as="geometry"/></mxCell><mxCell id="116" value="" style="endArrow=classic;html=1;exitX=0.5;exitY=1;exitDx=0;exitDy=0;" edge="1" parent="1" source="111"><mxGeometry width="50" height="50" relative="1" as="geometry"><mxPoint x="1550" y="1320" as="sourcePoint"/><mxPoint x="1440" y="1390" as="targetPoint"/></mxGeometry></mxCell><mxCell id="117" value="Вы умеете готовить?" style="ellipse;whiteSpace=wrap;html=1;aspect=fixed;" vertex="1" parent="1"><mxGeometry x="1400" y="1390" width="80" height="80" as="geometry"/></mxCell><mxCell id="118" value="" style="endArrow=classic;html=1;exitX=0;exitY=1;exitDx=0;exitDy=0;" edge="1" parent="1" source="117"><mxGeometry width="50" height="50" relative="1" as="geometry"><mxPoint x="1550" y="1320" as="sourcePoint"/><mxPoint x="1360" y="1520" as="targetPoint"/></mxGeometry></mxCell><mxCell id="119" value="" style="endArrow=classic;html=1;exitX=1;exitY=1;exitDx=0;exitDy=0;" edge="1" parent="1" source="117"><mxGeometry width="50" height="50" relative="1" as="geometry"><mxPoint x="1550" y="1320" as="sourcePoint"/><mxPoint x="1510" y="1520" as="targetPoint"/></mxGeometry></mxCell><mxCell id="120" value="Нет" style="ellipse;whiteSpace=wrap;html=1;aspect=fixed;" vertex="1" parent="1"><mxGeometry x="1321" y="1520" width="80" height="80" as="geometry"/></mxCell><mxCell id="121" value="Да" style="ellipse;whiteSpace=wrap;html=1;aspect=fixed;" vertex="1" parent="1"><mxGeometry x="1470" y="1520" width="80" height="80" as="geometry"/></mxCell><mxCell id="122" value="" style="endArrow=classic;html=1;exitX=1;exitY=1;exitDx=0;exitDy=0;" edge="1" parent="1" source="121"><mxGeometry width="50" height="50" relative="1" as="geometry"><mxPoint x="1520" y="1610" as="sourcePoint"/><mxPoint x="1560" y="1640" as="targetPoint"/></mxGeometry></mxCell><mxCell id="123" value="Михаил Румянцев" style="ellipse;whiteSpace=wrap;html=1;aspect=fixed;" vertex="1" parent="1"><mxGeometry x="1520" y="1640" width="80" height="80" as="geometry"/></mxCell><mxCell id="124" value="" style="endArrow=classic;html=1;exitX=0;exitY=1;exitDx=0;exitDy=0;" edge="1" parent="1" source="120"><mxGeometry width="50" height="50" relative="1" as="geometry"><mxPoint x="1550" y="1620" as="sourcePoint"/><mxPoint x="1310" y="1640" as="targetPoint"/></mxGeometry></mxCell><mxCell id="125" value="&lt;span data-sheets-userformat=&quot;{&amp;quot;2&amp;quot;:513,&amp;quot;3&amp;quot;:{&amp;quot;1&amp;quot;:0},&amp;quot;12&amp;quot;:0}&quot; data-sheets-value=&quot;{&amp;quot;1&amp;quot;:2,&amp;quot;2&amp;quot;:&amp;quot;Максим Дармороз&amp;quot;}&quot; style=&quot;font-size:10pt;font-family:Arial;font-style:normal;&quot;&gt;Максим Дармороз&lt;/span&gt;" style="ellipse;whiteSpace=wrap;html=1;aspect=fixed;" vertex="1" parent="1"><mxGeometry x="1270" y="1640" width="80" height="80" as="geometry"/></mxCell></root></mxGraphModel></diagram></mxfile>